<svg width="100" height="100" viewBox="0 0 100 100" fill="none" xmlns="http://www.w3.org/2000/svg">
<circle cx="50" cy="50" r="50" fill="#4A4238"/>
<path d="M32.592 67.768C30.128 67.768 28 67.24 26.208 66.184C24.416 65.096 23.04 63.608 22.08 61.72C21.152 59.8 20.672 57.624 20.64 55.192L26.928 54.856C26.992 57.352 27.504 59.224 28.464 60.472C29.456 61.72 30.832 62.344 32.592 62.344C34.384 62.344 35.776 61.72 36.768 60.472C37.76 59.192 38.256 57.32 38.256 54.856V32.92H44.496V54.856C44.496 57.48 44 59.768 43.008 61.72C42.016 63.64 40.624 65.128 38.832 66.184C37.072 67.24 34.992 67.768 32.592 67.768ZM51.465 67V32.92H57.705V48.472L71.049 32.92H78.441L65.673 47.896L79.257 67H72.105L61.545 52.168L57.705 56.536V67H51.465Z" fill="white"/>
</svg>
